<?xml version="1.0"?><svg id="a" xmlns="http://www.w3.org/2000/svg" viewBox="0 0 452.35 441.24"><path d="M372.02,267.24c2.67,10.89,5.71,21.69,5.43,33.11-.1,3.81-.69,6.06-5.1,5.35-3.73-.6-8.8,1.34-8.55-5.7.68-19.12-5.74-36.31-18.55-49.82-11.35-11.96-23.32-23.64-36.91-33.33-3.99-2.84-6.82-2.45-10.6,1.12-21.58,20.32-32.91,45.19-35.15,74.62-2.66,34.93,5.05,67.28,23.13,97.2,5.15,8.54,12.34,15.34,19.45,22.22,2.02,1.95,3.6,1.11,5.56.3,21.87-9.06,41.11-22.11,58.12-38.46,19.28-18.55,34.57-39.98,45.56-64.4,1.22-2.7,2.68-4.23,5.83-3.85,3.21.38,6.53-.52,9.75.52-21.12,61.13-88.15,130.18-181.47,134.87-103.51,5.2-179.68-69.68-202.07-135.37,4.13,0,8.04-.04,11.94,0,3,.04,3.34,2.72,4.2,4.65,10.69,23.84,25.71,44.66,44.48,62.75,18.9,18.19,40.53,32.31,64.9,42.18,2.51,1.02,4.28.58,5.97-1.37,17.62-20.45,30.8-43.2,33.79-70.48,2.82-25.81-5.59-48.18-24.24-66.2-10.51-10.17-24.36-14.88-37.66-20.41-12.46-5.18-24.85-4.93-37.66-2.07-8.78,1.96-17.46,4.11-26.02,6.96-10.67,3.55-20.32,8.77-29.48,16.07-3.65-3.04-5.81-7.04-8.31-11.28,12.18-11.01,27.03-16.2,42.78-21.72-22.41-6.39-42.5-14.83-53.58-36.23-2.85-5.51-5.26-11.19-4.55-18.27h10.58c1.35,0,2.27.45,2.64,1.92,5.63,22.9,23.38,31.59,43.75,37.19,14.87,4.08,30.37,4.91,45.3,8.7,3.79.96,7.57,1.92,12.2,3.09-2.96-9-7.43-16.22-12.61-23.1-13.93-18.48-32.74-29.86-54.09-37.9-24.46-9.23-38.02-27.01-41.06-53.12-1.73-14.92.56-29.23,4.28-43.53.91-3.49,2.52-3.96,5.64-2.73,8.33,3.3,8.14,3.16,5.84,12.05-3.83,14.78-4.88,29.58.16,44.4,5.34,15.69,16.58,25.38,31.75,30.49,20.7,6.99,38.29,18.42,52.68,34.74,10.41,11.81,18.22,25.21,23.03,40.25.89,2.78,2.16,4.81,5.07,6,12.63,5.19,23.94,12.38,33.15,22.63.29.32.81.42,1.64.81,1.12-7.26-.28-14.38,1.3-21.31,1.34-5.89,1.93-11.97,3.6-17.76,1.05-3.65.09-5.77-2.41-8.17-6.68-6.38-14.31-11.5-22.08-16.36-17.53-10.96-31.47-25.34-42.13-42.95-1.28-2.12-2.58-3.17-5.12-3.56-12.02-1.82-23.98-4.26-34.49-10.69-15.12-9.26-24.49-22.21-24.31-40.71,0-1,.2-2,.33-3.24,1.03-.16,1.85-.4,2.67-.39,10.62.21,9.41-1.86,10.87,9.18,1.2,9.08,6.74,15.95,14.23,20.81,8.01,5.18,16.8,8.87,27.6,10.43-13.58-38.04-7.29-73.27,13.4-106.81,4.58,1.16,7.5,4.43,11.59,6.99-16.33,26.86-23.54,55.35-15.03,86.25,4.21,15.29,11.08,29.37,22.89,41.4,4.92-4.91,6.46-11.06,8.21-16.79,6.57-21.65,8-43.75,4.58-66.14-1.46-9.55.16-11.34,10.13-11.2.5,0,.98.22,1.8.42,3.14,17.93,3.54,36.05,1.93,54.14-1.49,16.83-5.75,33.03-14.3,47.83-1.8,3.12.34,4.34,2.35,5.79,9.4,6.76,19.59,12.41,28.5,19.9,2.06,1.73,3.64,4.21,7.02,5.11,5.58-10.1,15.57-16.75,21.02-27.25,6.53-12.59,8.83-26.04,9.99-39.87.04-.52-.04-1.04.03-1.56,1.27-10.31-1.24-18.93-8.67-26.9-11.88-12.75-15.32-29.15-16.19-46.02-.38-7.36-.95-14.87,1.47-22.38,3.36-.88,6.47.56,9.61,1.11,3.2.55,2.74,3.29,2.39,5.41-1.73,10.44-.52,20.67,2.2,30.76,1.51,5.61,3.5,11.09,7.56,16.96.72-7.23,2.33-13.13,5.01-18.69,8.86-18.37,24.09-29.42,42.46-36.84,3.53-1.43,7.16-2.59,10.75-3.85,3.26-1.16,5.37-.37,5.92,3.35,1.5,10.21,3.43,8.12-6.67,11.82-16.08,5.9-30.72,13.82-38.98,29.9-4.9,9.52-6.05,19.54-4.76,30.21,1.32,10.76,2.74,21.63.51,33.57,10.32-.74,17.65-6.47,24.65-12.23,7.07-5.81,12.58-13.18,17.22-20.81.61.03.83-.03.96.06,12.88,8.22,12.87,4.33,3.94,17.04-10.98,15.65-25.29,26.95-44.67,30.59-2.61.49-4.23,1.72-4.96,4.47-1.11,4.14-2.63,8.18-3.96,12.22,1.75,1.52,3.54.77,5.13.65,13.85-1.07,26.89,1.84,39.19,8.06,3.55,1.79,6.35,1.61,9.56-.75,5.58-4.11,11.44-8.03,17.9-10.48,13.1-4.99,21.02-15.36,28.68-26.14,1.3-1.82,2.48-3.74,3.93-5.94-7.35-8.92-12.74-19.09-16.6-30.07-3.7-10.52-4.85-21.52-5.94-32.52-.36-3.66-.82-7.3,5.15-7.09,8.21.31,8.06-.03,8.35,6.64.68,15.62,4.47,30.38,12.67,43.84.7,1.15,1.63,2.17,2.9,3.85,3.96-8.31,5.84-16.61,7.09-25.07,1.14-7.72,1.45-15.52,1-23.3-.23-3.96,1.23-5.26,5.01-5.08,2.19.1,4.41-.47,7.48-.83.5,15.27.84,30.09-2.79,44.86-3.59,14.58-9.77,27.92-17.63,41.05,27.82-7.28,55.77-11.55,84.21-11.15,1.26,3.15.48,5.78.77,8.31.47,4.04-1.25,5.32-5.32,5.47-22.51.83-44.81,3.56-66.67,9.14-19.21,4.9-37.65,11.86-55.01,21.53-1.78.99-3.46,2.18-5.75,3.65,3.15,4.33,6.75,7.79,11.38,8.86,12.13,2.79,24.46,4.58,36.99,4.42,22.06-.28,42.39-5.92,60.45-18.92,1.94-1.4,4-2.62,5.85-3.82.66.34,1.07.42,1.25.65,8.86,11.85,8.8,9.3-2.85,17.46-16.9,11.83-36.12,17-56.56,18.29-8.22.52-16.42,1.16-26.02-.45,4.92,5.56,9.55,9.02,14.47,12.13,11.99,7.58,23.75,15.57,37.72,19.37,16.47,4.49,31.6,2.87,44.65-9.44,3.47,1.74,5.47,4.86,7.89,7.44,1.89,2.03.58,3.84-1.08,5.35-8.8,7.92-19.19,12.24-30.91,13.3-14.85,1.35-28.33-3.56-41.54-9.54-1.86-.84-3.56-2.25-5.82-1.91-.04-.14-.05-.3-.13-.4-.05-.07-.21-.06-.32-.08.13.18.27.35.4.53h0ZM226.69,307.86c12.49,39.58,12.79,79.11.14,119.16,7.52,0,14.06.08,20.58-.04,2.54-.05,3.81-1.7,4.57-4.14,3.78-11.92,6.33-24.1,6.36-36.59.09-30.33-12.13-55.87-31.66-78.39h0ZM252.53,267.21c7.04-24.38,18.93-44.21,37.46-60.99-10.4-3.75-19.37-7.12-29.05-6.26-14.73,1.3-25.29,9.34-33.04,21.58-1.54,2.43-1.53,4.33.37,6.48,9.93,11.24,17.62,23.9,24.26,39.2h0ZM248.8,312.94c-1.99-31.57-15.35-57.93-28.4-72.05-1.06.56-1.14,1.61-1.39,2.63-2.26,9.33-1.92,18.84-2.22,28.33-.16,5.07,1.56,8.55,5.44,11.48,6.52,4.93,12.06,10.88,17.12,17.25,3.07,3.86,6,7.84,9.43,12.37h0ZM190.69,420.37c6.76,3.06,13.36,3.52,19.79,4.64,2.59.45,2.98-1.7,3.62-3.54,5.12-14.97,7.72-30.45,8.84-46.17.28-3.9.76-7.99-1.04-13.43-6.21,22.61-16.33,41.48-31.21,58.5M271.46,393.83c-.95,11.23-3.5,20.94-5.5,31.44,9.17-1.38,17.39-3.19,26.2-6.38-8.12-7.5-14.05-15.72-20.7-25.06" style="fill:#d2b598;"></path><path d="M430.44,111.11c-.22,15.7-9.69,26.9-24.31,28.52-2.7.3-5.47-.07-8.21-.24-1.82-.11-2.71-1.22-2.9-3.03-1.85-17.18,8.15-34.19,27.78-35.43,7.04-.45,7.77.6,7.63,10.18h0ZM233.74,163.14c.39,5.24-1.64,10.71-4.48,15.96-1.74,3.22-3.8,4.13-7.57,2.31-17.7-8.55-20.62-30.57-11.52-45.02,2.06-3.28,4.36-3.71,7.81-1.83,11.09,6.02,15.84,15.46,15.77,28.59h0ZM310.61,272.68c1.24-10.15,5.22-18.96,14.16-25.01,2.43-1.64,4.79-1.97,6.81.68,10.36,13.57,11.64,34.21-4.24,45.4-5.07,3.58-6.18,3.42-10.01-1.57-4.36-5.68-6.02-12.29-6.72-19.5M18.48,146.51c12.19.02,22.79,7.86,26.27,18.79,1.08,3.4.3,5.5-2.66,7.37-15.28,9.71-34.45,3.69-41.34-12.97-1.33-3.21-1.01-5.52,1.9-7.53,4.92-3.38,9.97-6.25,15.82-5.66h0ZM305.59,88.59c0,17.45-13.14,30.06-30.08,28.94-2.64-.18-4.95-.63-5.36-3.7-2.19-16.64,7.31-32.84,25.32-34.73,9.16-.96,10.12.28,10.12,9.5h0ZM173.13,55.86c.12-18.57,13.04-31.27,30.2-29.92,3.22.26,4.93,1.65,5.08,4.66.86,15.97-7.11,33.95-28.44,34.01-6.78.02-6.91-.19-6.86-8.75h0ZM129.45,271.8c0,15.78-8.65,26.95-23.24,30.07-9.65,2.06-13.1-.73-12.86-10.41.36-14.99,13.25-27.43,28.39-27.4,7.02.02,7.72.72,7.71,7.74h0ZM372.08,58.22c.22,12.36-.98,15.79-15.27,10.34-15.52-5.92-19.98-23.3-15.57-37.28.75-2.4,2.62-2.3,4.59-2.32,13.06-.15,25.41,11.39,26.23,24.6.1,1.55,0,3.11,0,4.67h0ZM113.97,86.68c0,1.21.03,2.43,0,3.64-.34,10.45-4.82,13.48-14.2,9.04-17.09-8.1-19.06-26.03-13.99-39.88.89-2.44,2.54-3.09,5.34-2.58,13.74,2.5,22.83,14.16,22.86,29.78M261.56,15.15c-.35-3.62,1.81-8.04,3.26-12.62.73-2.34,2.46-2.48,4.49-2.52,11.25-.22,20.42,9.22,21.47,22.29.56,6.96-1.7,13.29-4.9,19.28-2.31,4.33-5.94,3.55-9.31,1.56-10.07-5.96-14.99-14.88-15.01-27.97h0Z" style="fill:#d2b598;"></path></svg>